<svg xmlns="http://www.w3.org/2000/svg" viewBox="141.672 807.325 5.556 5.556"><path id="Icon (Stroke)_206" d="M146.044 811.76V811.349H145.633C145.537 811.349 145.459 811.271 145.459 811.175C145.459 811.079 145.537 811.001 145.633 811.001H146.044V810.59C146.044 810.494 146.122 810.417 146.217 810.417C146.313 810.417 146.391 810.494 146.391 810.59V811.001H146.802C146.898 811.001 146.976 811.079 146.976 811.175C146.976 811.271 146.898 811.349 146.802 811.349H146.391V811.76C146.391 811.856 146.313 811.934 146.217 811.934C146.122 811.934 146.044 811.856 146.044 811.76ZM146.367 808.961C146.348 808.769 146.185 808.619 145.987 808.619H142.654C142.443 808.619 142.272 808.789 142.272 809V809.243H146.369V809L146.367 808.961ZM146.717 809.973C146.717 810.069 146.639 810.146 146.543 810.146C146.447 810.146 146.369 810.069 146.369 809.973V809.591H142.272V811.084C142.272 811.295 142.443 811.466 142.654 811.466H144.876C144.972 811.466 145.05 811.544 145.05 811.64C145.05 811.735 144.972 811.813 144.876 811.813H142.654C142.251 811.813 141.925 811.486 141.925 811.084V809C141.925 808.598 142.251 808.271 142.654 808.271H145.987C146.39 808.271 146.717 808.598 146.717 809V809.973Z" fill="currentColor"/></svg>