<svg xmlns="http://www.w3.org/2000/svg" viewBox="141.672 2748.376 5.556 5.556"><path id="Icon (Stroke)_597" d="M146.36 2749.53C146.36 2749.37 146.233 2749.24 146.077 2749.24H145.345V2753.06H146.077C146.233 2753.06 146.36 2752.94 146.36 2752.78V2749.53ZM143.953 2753.06H144.997V2749.24H143.953V2753.06ZM142.541 2752.78C142.541 2752.94 142.667 2753.06 142.824 2753.06H143.606V2749.24H142.824C142.667 2749.24 142.541 2749.37 142.541 2749.53V2752.78ZM146.707 2752.78C146.707 2753.13 146.425 2753.41 146.077 2753.41H142.824C142.476 2753.41 142.193 2753.13 142.193 2752.78V2749.53C142.193 2749.18 142.476 2748.9 142.824 2748.9H146.077C146.425 2748.9 146.707 2749.18 146.707 2749.53V2752.78Z" fill="currentColor"/></svg>