<svg xmlns="http://www.w3.org/2000/svg" viewBox="369.459 667.736 5.556 5.556"><path id="Icon (Stroke)_172" d="M369.98 670.636C369.98 669.456 370.946 668.502 372.133 668.502C372.229 668.502 372.307 668.579 372.307 668.675C372.307 668.771 372.229 668.849 372.133 668.849C371.134 668.849 370.328 669.65 370.328 670.636C370.328 671.621 371.134 672.423 372.133 672.423C373.132 672.423 373.939 671.621 373.939 670.636C373.939 670.54 374.017 670.462 374.113 670.462C374.209 670.462 374.286 670.54 374.287 670.636C374.287 671.816 373.321 672.77 372.133 672.77C370.946 672.77 369.98 671.816 369.98 670.636ZM370.97 670.636C370.97 669.997 371.492 669.482 372.133 669.482C372.229 669.482 372.307 669.56 372.307 669.655C372.307 669.751 372.229 669.829 372.133 669.829C371.681 669.829 371.317 670.192 371.317 670.636C371.317 671.08 371.681 671.443 372.133 671.443C372.586 671.443 372.949 671.08 372.949 670.636C372.95 670.54 373.027 670.462 373.123 670.462C373.219 670.462 373.297 670.54 373.297 670.636C373.297 671.275 372.774 671.79 372.133 671.79C371.492 671.79 370.97 671.275 370.97 670.636ZM373.517 668.291C373.562 668.257 373.622 668.247 373.676 668.266C373.738 668.286 373.783 668.34 373.793 668.405L373.862 668.883L374.345 668.952C374.41 668.961 374.465 669.006 374.486 669.069C374.506 669.131 374.49 669.2 374.443 669.247L373.656 670.026C373.609 670.072 373.541 670.089 373.479 670.068L373.055 669.928L372.256 670.72C372.188 670.787 372.078 670.787 372.01 670.719C371.943 670.65 371.943 670.541 372.011 670.473L372.809 669.682L372.669 669.265C372.648 669.202 372.664 669.133 372.711 669.086L373.499 668.307L373.517 668.291ZM373.033 669.257L373.145 669.592L373.487 669.705L373.95 669.246L373.684 669.209C373.608 669.198 373.547 669.138 373.536 669.061L373.498 668.796L373.033 669.257Z" fill="currentColor"/></svg>