<svg width="40" height="40" viewBox="0 0 40 40" fill="none" xmlns="http://www.w3.org/2000/svg">
<rect x="8.18164" y="5.45508" width="27.2727" height="32.7273" rx="4.57702" fill="#FF6C38"/>
<rect x="5.83099" y="3.10442" width="26.7006" height="32.1551" rx="6.57946" fill="#FF6C38" fill-opacity="0.08"/>
<rect x="5.83099" y="3.10442" width="26.7006" height="32.1551" rx="6.57946" stroke="url(#paint0_linear_5282_20854)" stroke-width="0.572127"/>
<path d="M20.5447 13.272C21.5594 13.272 22.5642 13.4719 23.5018 13.8602C24.4393 14.2486 25.2911 14.8177 26.0087 15.5353C26.7262 16.2528 27.2954 17.1047 27.6837 18.0422C28.0721 18.9797 28.2719 19.9845 28.2719 20.9993L20.5447 20.9993L20.5447 13.272Z" fill="white"/>
<path d="M26.9086 22.364C26.9086 23.8923 26.4555 25.3863 25.6064 26.657C24.7573 27.9278 23.5504 28.9182 22.1385 29.5031C20.7265 30.0879 19.1728 30.2409 17.6739 29.9428C16.1749 29.6446 14.798 28.9087 13.7174 27.828C12.6367 26.7473 11.9007 25.3705 11.6026 23.8715C11.3044 22.3726 11.4574 20.8189 12.0423 19.4069C12.6272 17.9949 13.6176 16.7881 14.8883 15.939C16.1591 15.0899 17.6531 14.6367 19.1814 14.6367V22.364H26.9086Z" fill="white" fill-opacity="0.8"/>
<defs>
<linearGradient id="paint0_linear_5282_20854" x1="7.3631" y1="4.40927" x2="30.5449" y2="33.7275" gradientUnits="userSpaceOnUse">
<stop stop-color="#FFB095"/>
<stop offset="1" stop-color="white" stop-opacity="0.1"/>
</linearGradient>
</defs>
</svg>
